PathFileType  4	(X/Y/Z) C:\Users\antoi\Documents\MyRepositories\mobilecap\ResultsAnalysis
DataRate	CameraRate	NumFrames	NumMarkers	Units	OrigDataRate	OrigDataStartFrame	OrigNumFrames
100.0	100.0	4	51	mm	100.0	1	247
Frame#	Time	r_knee			r_shank_antsup			r_ankle			r_calc			r_5meta			r_toe			L_knee			L_shank_antsup			L_ankle			L_calc			L_5meta			L_toe			r_sh2			r_sh3			r_sh4			L_sh2			L_sh3			r_thigh1			r_thigh2			r_thigh3			r_thigh4			r_thigh5			L_thigh1			L_thigh2			L_thigh3			L_thigh4			r.ASIS			r.PSIS			L.ASIS			L.PSIS			C7			R_Shoulder			L_Shoulder			R_Sternum			L_Sternum			R_humerus			R_elbow_med			R_elbow_lat			R_forearm			R_wrist_radius			R_wrist_ulna			L_humerus			L_elbow_med			L_elbow_lat			L_forearm			L_wrist_radius			L_wrist_ulna			R_HJC			L_HJC			R_HJC_reg			L_HJC_reg			
		X1	Y1	Z1	X2	Y2	Z2	X3	Y3	Z3	X4	Y4	Z4	X5	Y5	Z5	X6	Y6	Z6	X7	Y7	Z7	X8	Y8	Z8	X9	Y9	Z9	X10	Y10	Z10	X11	Y11	Z11	X12	Y12	Z12	X13	Y13	Z13	X14	Y14	Z14	X15	Y15	Z15	X16	Y16	Z16	X17	Y17	Z17	X18	Y18	Z18	X19	Y19	Z19	X20	Y20	Z20	X21	Y21	Z21	X22	Y22	Z22	X23	Y23	Z23	X24	Y24	Z24	X25	Y25	Z25	X26	Y26	Z26	X27	Y27	Z27	X28	Y28	Z28	X29	Y29	Z29	X30	Y30	Z30	X31	Y31	Z31	X32	Y32	Z32	X33	Y33	Z33	X34	Y34	Z34	X35	Y35	Z35	X36	Y36	Z36	X37	Y37	Z37	X38	Y38	Z38	X39	Y39	Z39	X40	Y40	Z40	X41	Y41	Z41	X42	Y42	Z42	X43	Y43	Z43	X44	Y44	Z44	X45	Y45	Z45	X46	Y46	Z46	X47	Y47	Z47	X48	Y48	Z48	X49	Y49	Z49	X50	Y50	Z50	X51	Y51	Z51	

1	0.00000000	-1174.17437	909.03572	-404.16203	-1171.27199	756.63531	-407.87488	-1298.18833	410.65083	-403.18773	-1357.98254	381.70771	-465.81508	-1164.83899	348.47452	-372.61728	-1126.69678	375.49792	-423.49138	-1198.14526	909.70395	-751.27822	-1180.79314	704.91150	-730.69947	-1310.74304	421.95243	-732.55194	-1367.12916	384.47502	-665.53405	-1175.63232	342.32307	-775.63257	-1130.92140	373.91724	-720.69180	-1195.65374	646.55836	-411.37936	-1232.76449	767.91132	-367.51131	-1261.31947	660.82192	-360.20972	-1248.98358	726.58134	-783.49171	-1279.80044	611.82234	-766.75067	-1137.53148	1204.93572	-381.10462	-1121.53439	1093.33021	-382.64384	-1181.78426	1062.76970	-373.31577	-1246.96193	1192.98143	-404.84658	-1232.42738	1074.16262	-394.99336	-1126.26728	1204.21582	-763.49905	-1130.86317	1069.36515	-757.36725	-1234.38102	1213.35593	-769.42837	-1238.34235	1073.90467	-774.83623	-1087.29604	1483.88321	-449.69799	-1280.92577	1516.36894	-525.19730	-1110.32165	1476.08871	-715.70140	-1286.22514	1519.47319	-618.47673	-1216.52899	2004.66803	-592.09261	-1134.46248	1967.95478	-418.42739	-1161.79722	1978.03426	-768.63688	-1071.68274	1921.76223	-566.35607	-1072.11715	1922.87947	-615.73004	-1188.75174	1709.02075	-332.50063	-1301.33057	1613.91591	-356.78047	-1277.06837	1635.53532	-286.69149	-1206.13443	1431.16244	-269.30678	-1182.68463	1340.40744	-273.48123	-1209.58478	1339.82293	-246.12275	-1190.26294	1689.85411	-835.12209	-1292.86554	1629.76572	-803.08602	-1262.38738	1622.21606	-870.93873	-1208.57423	1423.24749	-893.47995	-1192.09013	1345.16274	-886.98968	-1216.95310	1347.85347	-910.75157	-1171.61911	1389.84246	-477.82025	-1191.19118	1388.73373	-674.32130	-1162.10246	1395.46982	-486.26287	-1172.09655	1401.32411	-662.17572	
2	0.01000000	-1173.49917	908.66861	-404.21080	-1170.65695	756.37145	-407.92609	-1298.05211	410.47166	-403.15863	-1357.98243	381.68641	-465.80549	-1164.80928	348.50252	-372.66912	-1126.71280	375.56538	-423.47520	-1197.25494	909.69138	-751.55147	-1180.17825	704.52928	-730.70890	-1310.66562	421.93479	-732.50627	-1367.10672	384.61422	-665.43672	-1175.61516	342.35626	-775.60047	-1130.82323	373.98316	-720.58409	-1195.27844	646.35618	-411.41755	-1232.04624	767.79570	-367.38032	-1260.90097	660.74229	-360.70860	-1248.33482	726.44911	-783.41937	-1279.35681	611.85592	-766.94459	-1137.27225	1204.71243	-380.76028	-1121.30856	1093.10513	-382.10242	-1181.36119	1062.54497	-373.32281	-1246.60329	1192.70299	-405.04004	-1232.01119	1074.00159	-395.00768	-1125.55520	1203.95495	-763.58081	-1130.05601	1069.14091	-757.51842	-1233.52796	1213.13288	-769.54654	-1237.46974	1073.74897	-775.30745	-1087.10014	1483.53029	-449.45370	-1281.08698	1516.37294	-525.08825	-1108.88069	1475.64893	-714.16060	-1285.74163	1519.44271	-618.72532	-1213.29712	2004.68442	-591.76205	-1131.75526	1967.43811	-418.49736	-1158.36144	1977.88161	-767.97711	-1068.96577	1921.34744	-566.13068	-1069.38766	1921.98489	-615.58156	-1188.66874	1709.72327	-331.40127	-1302.30355	1615.97821	-355.37302	-1277.92379	1637.65451	-285.34377	-1208.99955	1432.38813	-266.98212	-1186.50753	1341.57724	-270.71605	-1213.38150	1341.32655	-243.44381	-1191.21207	1690.36137	-836.37686	-1294.47065	1631.53721	-804.51815	-1264.34033	1623.92806	-872.44317	-1214.39181	1424.41780	-897.01915	-1199.96717	1346.27385	-891.09971	-1223.97751	1349.78705	-915.55899	-1171.76702	1389.67766	-477.24136	-1190.36847	1388.46395	-673.83554	-1162.19761	1395.67275	-486.21126	-1170.90192	1401.41111	-661.27464	
3	0.02000000	-1172.75015	908.54380	-404.05803	-1170.07464	756.08010	-407.96701	-1298.07404	410.51627	-403.14865	-1358.03250	381.64434	-465.79570	-1164.80616	348.52795	-372.75007	-1126.77665	375.68757	-423.47737	-1196.22086	909.60626	-751.91877	-1179.49744	704.14931	-730.84180	-1310.58061	421.95001	-732.50842	-1367.11607	384.62875	-665.41105	-1175.60994	342.40366	-775.58647	-1130.81415	374.07401	-720.52629	-1194.89418	646.09625	-411.48422	-1231.41059	767.85424	-367.15208	-1260.61311	660.55589	-360.82241	-1247.55744	726.37623	-783.53667	-1278.89411	611.81249	-767.02417	-1137.11000	1204.52587	-380.46907	-1121.02245	1092.92452	-381.86018	-1180.95512	1062.29424	-373.28349	-1246.22101	1192.37965	-405.25395	-1231.56459	1073.70292	-395.21135	-1124.85159	1203.77329	-763.67958	-1129.18808	1068.85026	-757.58729	-1232.75574	1212.75280	-769.60634	-1236.62098	1073.43116	-775.43838	-1086.86329	1483.20218	-449.35592	-1280.61001	1516.41598	-525.48246	-1107.49185	1475.18561	-712.69646	-1285.48160	1519.60887	-618.41585	-1209.79264	2004.84072	-591.16118	-1128.91070	1967.03846	-418.52522	-1155.04337	1977.51046	-767.61505	-1066.25024	1920.56986	-566.00730	-1066.56071	1921.14836	-615.62231	-1188.51911	1710.46132	-330.45364	-1303.23234	1617.85274	-353.96989	-1278.72393	1639.62551	-284.01552	-1211.89368	1433.67450	-264.73513	-1190.32517	1342.88162	-267.85353	-1217.23115	1342.95239	-240.58960	-1192.10545	1691.00881	-837.84637	-1296.16658	1633.51472	-806.07950	-1266.17555	1626.44289	-875.10492	-1220.19792	1425.86263	-900.83259	-1207.00549	1347.28746	-895.64976	-1231.21954	1351.45699	-919.86162	-1171.78667	1389.56494	-476.72152	-1189.63523	1388.24765	-673.38544	-1161.32042	1395.69490	-485.83728	-1170.44815	1401.67617	-659.90945	
4	0.03000000	-1171.96588	908.44362	-403.98844	-1169.53094	755.77779	-407.97128	-1298.16244	410.62964	-403.15290	-1358.10878	381.59090	-465.80628	-1164.82352	348.55252	-372.80691	-1126.90518	375.81306	-423.61133	-1195.07072	909.35700	-752.08554	-1178.75192	703.78049	-730.95509	-1310.51536	421.96675	-732.58067	-1367.16479	384.56234	-665.42786	-1175.56475	342.53017	-775.73937	-1130.84708	374.16159	-720.46252	-1194.53612	645.86292	-411.53564	-1230.77186	767.84920	-366.91705	-1260.34644	660.30965	-360.62963	-1246.68071	726.29842	-783.72951	-1278.40347	611.70946	-767.00141	-1136.83601	1204.29729	-380.35281	-1120.54820	1092.71991	-381.87340	-1180.54359	1062.07685	-373.11872	-1245.81987	1192.03057	-405.34030	-1231.08759	1073.29295	-395.43504	-1124.11670	1203.55948	-763.72880	-1128.27830	1068.54829	-757.58402	-1231.90432	1212.44568	-769.68897	-1235.77585	1072.76542	-774.95383	-1086.52859	1482.76526	-449.28160	-1279.58819	1516.82842	-526.04856	-1106.20694	1474.69545	-711.37574	-1284.94966	1520.21826	-617.51401	-1206.13486	2004.95821	-590.75321	-1125.89675	1966.67877	-418.55390	-1151.75974	1977.08026	-767.73547	-1063.38168	1919.60542	-565.99652	-1063.59958	1920.26599	-615.71189	-1188.35566	1711.30683	-329.51675	-1304.17214	1619.84528	-352.45032	-1279.51548	1641.71384	-282.57743	-1214.80004	1435.17673	-262.42410	-1194.15478	1344.31455	-264.88727	-1221.12213	1344.74289	-237.59858	-1193.04824	1691.70847	-839.35704	-1297.62943	1635.83800	-807.97707	-1267.92561	1629.53600	-878.55797	-1226.11861	1427.56627	-904.73851	-1214.04272	1348.75694	-900.30916	-1238.66805	1353.35960	-924.13117	-1171.79080	1389.54697	-476.19369	-1189.13369	1388.22750	-672.90253	-1160.25707	1395.66706	-485.36369	-1170.40346	1402.08522	-658.49756	
